<mxfile host="app.diagrams.net" modified="2023-05-04T13:32:10.517Z" agent="Mozilla/5.0 (Macintosh; Intel Mac OS X 10_15_7) AppleWebKit/605.1.15 (KHTML, like Gecko) Version/16.4.1 Safari/605.1.15" etag="U9HajKNA_CrFO0ZEYXJH" version="21.2.7" type="github">
  <diagram name="Page-1" id="cPZaBPU9ChipEOjV1w3C">
    <mxGraphModel dx="1525" dy="867" grid="1" gridSize="10" guides="1" tooltips="1" connect="1" arrows="1" fold="1" page="1" pageScale="1" pageWidth="1169" pageHeight="827" math="0" shadow="0">
      <root>
        <mxCell id="0" />
        <mxCell id="1" parent="0" />
        <mxCell id="VVqKtF_Fqne7itBjFoDa-1" value="RiskProfile SPM" style="shape=cube;whiteSpace=wrap;html=1;boundedLbl=1;backgroundOutline=1;darkOpacity=0.05;darkOpacity2=0.1;verticalAlign=top;" parent="1" vertex="1">
          <mxGeometry x="510" y="136" width="620" height="340" as="geometry" />
        </mxCell>
        <mxCell id="VVqKtF_Fqne7itBjFoDa-2" value="RiskProfileBoundaries" style="rounded=1;whiteSpace=wrap;html=1;verticalAlign=top;" parent="1" vertex="1">
          <mxGeometry x="490" y="170" width="120" height="145" as="geometry" />
        </mxCell>
        <mxCell id="xhKw9gcedyeIrSXuS4pG-3" style="edgeStyle=orthogonalEdgeStyle;rounded=0;orthogonalLoop=1;jettySize=auto;html=1;exitX=0.75;exitY=0;exitDx=0;exitDy=0;entryX=0.75;entryY=1;entryDx=0;entryDy=0;" edge="1" parent="1" source="VVqKtF_Fqne7itBjFoDa-3" target="xhKw9gcedyeIrSXuS4pG-2">
          <mxGeometry relative="1" as="geometry" />
        </mxCell>
        <mxCell id="xhKw9gcedyeIrSXuS4pG-13" style="edgeStyle=orthogonalEdgeStyle;rounded=0;orthogonalLoop=1;jettySize=auto;html=1;exitX=0.5;exitY=0;exitDx=0;exitDy=0;entryX=1;entryY=0.5;entryDx=0;entryDy=0;" edge="1" parent="1" source="VVqKtF_Fqne7itBjFoDa-3" target="VVqKtF_Fqne7itBjFoDa-2">
          <mxGeometry relative="1" as="geometry" />
        </mxCell>
        <mxCell id="VVqKtF_Fqne7itBjFoDa-3" value="MCRiskViewProfile" style="rounded=1;whiteSpace=wrap;html=1;" parent="1" vertex="1">
          <mxGeometry x="990" y="420" width="120" height="60" as="geometry" />
        </mxCell>
        <mxCell id="VVqKtF_Fqne7itBjFoDa-29" style="edgeStyle=orthogonalEdgeStyle;rounded=0;orthogonalLoop=1;jettySize=auto;html=1;exitX=1;exitY=0.5;exitDx=0;exitDy=0;entryX=1;entryY=0.25;entryDx=0;entryDy=0;" parent="1" source="VVqKtF_Fqne7itBjFoDa-4" target="VVqKtF_Fqne7itBjFoDa-2" edge="1">
          <mxGeometry relative="1" as="geometry" />
        </mxCell>
        <mxCell id="xhKw9gcedyeIrSXuS4pG-27" style="edgeStyle=orthogonalEdgeStyle;rounded=0;orthogonalLoop=1;jettySize=auto;html=1;exitX=0.5;exitY=0;exitDx=0;exitDy=0;entryX=1;entryY=0.75;entryDx=0;entryDy=0;" edge="1" parent="1" source="VVqKtF_Fqne7itBjFoDa-4" target="VVqKtF_Fqne7itBjFoDa-2">
          <mxGeometry relative="1" as="geometry" />
        </mxCell>
        <mxCell id="VVqKtF_Fqne7itBjFoDa-4" value="MCClientProfileView" style="rounded=1;whiteSpace=wrap;html=1;" parent="1" vertex="1">
          <mxGeometry x="790" y="420" width="170" height="60" as="geometry" />
        </mxCell>
        <mxCell id="VVqKtF_Fqne7itBjFoDa-7" style="edgeStyle=orthogonalEdgeStyle;rounded=0;orthogonalLoop=1;jettySize=auto;html=1;exitX=1;exitY=0.5;exitDx=0;exitDy=0;entryX=0;entryY=0.5;entryDx=0;entryDy=0;" parent="1" source="VVqKtF_Fqne7itBjFoDa-5" target="VVqKtF_Fqne7itBjFoDa-6" edge="1">
          <mxGeometry relative="1" as="geometry" />
        </mxCell>
        <mxCell id="VVqKtF_Fqne7itBjFoDa-8" style="edgeStyle=orthogonalEdgeStyle;rounded=0;orthogonalLoop=1;jettySize=auto;html=1;exitX=0.5;exitY=0;exitDx=0;exitDy=0;entryX=0.5;entryY=1;entryDx=0;entryDy=0;" parent="1" source="VVqKtF_Fqne7itBjFoDa-5" target="VVqKtF_Fqne7itBjFoDa-2" edge="1">
          <mxGeometry relative="1" as="geometry" />
        </mxCell>
        <mxCell id="VVqKtF_Fqne7itBjFoDa-5" value="FeatureConfigurator" style="rounded=1;whiteSpace=wrap;html=1;" parent="1" vertex="1">
          <mxGeometry x="490" y="354" width="120" height="60" as="geometry" />
        </mxCell>
        <mxCell id="VVqKtF_Fqne7itBjFoDa-12" style="edgeStyle=orthogonalEdgeStyle;rounded=0;orthogonalLoop=1;jettySize=auto;html=1;exitX=1;exitY=0.5;exitDx=0;exitDy=0;entryX=0.25;entryY=0;entryDx=0;entryDy=0;" parent="1" source="VVqKtF_Fqne7itBjFoDa-6" target="VVqKtF_Fqne7itBjFoDa-3" edge="1">
          <mxGeometry relative="1" as="geometry" />
        </mxCell>
        <mxCell id="xhKw9gcedyeIrSXuS4pG-28" style="edgeStyle=orthogonalEdgeStyle;rounded=0;orthogonalLoop=1;jettySize=auto;html=1;exitX=0.25;exitY=0;exitDx=0;exitDy=0;entryX=0.75;entryY=1;entryDx=0;entryDy=0;" edge="1" parent="1" source="VVqKtF_Fqne7itBjFoDa-6" target="VVqKtF_Fqne7itBjFoDa-2">
          <mxGeometry relative="1" as="geometry" />
        </mxCell>
        <mxCell id="VVqKtF_Fqne7itBjFoDa-6" value="MCRiskReminderViewController" style="rounded=1;whiteSpace=wrap;html=1;" parent="1" vertex="1">
          <mxGeometry x="630" y="355" width="180" height="60" as="geometry" />
        </mxCell>
        <mxCell id="VVqKtF_Fqne7itBjFoDa-15" value="App (or other client SPM)" style="shape=cube;whiteSpace=wrap;html=1;boundedLbl=1;backgroundOutline=1;darkOpacity=0.05;darkOpacity2=0.1;verticalAlign=top;" parent="1" vertex="1">
          <mxGeometry x="20" y="520" width="1120" height="280" as="geometry" />
        </mxCell>
        <mxCell id="VVqKtF_Fqne7itBjFoDa-18" value="Presenting" style="rounded=0;whiteSpace=wrap;html=1;" parent="1" vertex="1">
          <mxGeometry x="510" y="195" width="80" height="23" as="geometry" />
        </mxCell>
        <mxCell id="VVqKtF_Fqne7itBjFoDa-19" value="Interacting" style="rounded=0;whiteSpace=wrap;html=1;" parent="1" vertex="1">
          <mxGeometry x="510" y="257" width="80" height="23" as="geometry" />
        </mxCell>
        <mxCell id="VVqKtF_Fqne7itBjFoDa-20" value="ViewState" style="rounded=0;whiteSpace=wrap;html=1;" parent="1" vertex="1">
          <mxGeometry x="510" y="226" width="80" height="23" as="geometry" />
        </mxCell>
        <mxCell id="VVqKtF_Fqne7itBjFoDa-22" style="edgeStyle=orthogonalEdgeStyle;rounded=0;orthogonalLoop=1;jettySize=auto;html=1;exitX=0.25;exitY=0;exitDx=0;exitDy=0;entryX=0;entryY=0.75;entryDx=0;entryDy=0;" parent="1" source="xhKw9gcedyeIrSXuS4pG-25" target="VVqKtF_Fqne7itBjFoDa-2" edge="1">
          <mxGeometry relative="1" as="geometry">
            <mxPoint x="117.5" y="560" as="sourcePoint" />
          </mxGeometry>
        </mxCell>
        <mxCell id="xhKw9gcedyeIrSXuS4pG-15" style="edgeStyle=orthogonalEdgeStyle;rounded=0;orthogonalLoop=1;jettySize=auto;html=1;exitX=0.75;exitY=0;exitDx=0;exitDy=0;entryX=0;entryY=0.5;entryDx=0;entryDy=0;" edge="1" parent="1" source="xhKw9gcedyeIrSXuS4pG-25" target="VVqKtF_Fqne7itBjFoDa-5">
          <mxGeometry relative="1" as="geometry">
            <mxPoint x="232.5" y="560" as="sourcePoint" />
          </mxGeometry>
        </mxCell>
        <mxCell id="VVqKtF_Fqne7itBjFoDa-25" value="Dans une approche Clean Architecture,&lt;br&gt;Le client connait rien d&#39;autre que les abstractions et le configurator.&lt;br&gt;Le configurator construit des objects concrets&lt;br&gt;mais les renvoie sous forme d&#39;abstraction&lt;br&gt;(ou bien en cachant les détails comme ici :&lt;br&gt;On construit un FeatureViewController &lt;br&gt;mais on le renvoie sous forme de UIViewController)" style="text;html=1;align=left;verticalAlign=middle;resizable=0;points=[];autosize=1;strokeColor=none;fillColor=none;" parent="1" vertex="1">
          <mxGeometry x="20" y="289" width="380" height="110" as="geometry" />
        </mxCell>
        <mxCell id="VVqKtF_Fqne7itBjFoDa-38" value="&lt;b&gt;&lt;font style=&quot;font-size: 17px;&quot;&gt;&lt;u&gt;Les 3 piliers d&#39;un Package Clean&lt;/u&gt;&lt;/font&gt;&lt;/b&gt;" style="text;html=1;align=center;verticalAlign=middle;resizable=0;points=[];autosize=1;strokeColor=none;fillColor=none;" parent="1" vertex="1">
          <mxGeometry x="20" width="290" height="30" as="geometry" />
        </mxCell>
        <mxCell id="VVqKtF_Fqne7itBjFoDa-39" value="&lt;ul&gt;&lt;li style=&quot;text-align: left;&quot;&gt;Les abstractions et leur données DTOs, exposés dans une target &lt;i&gt;&lt;b&gt;Boundaries&lt;/b&gt;&lt;/i&gt;&lt;br&gt;&lt;/li&gt;&lt;li style=&quot;text-align: left;&quot;&gt;Les objet concrets qui implémentent les abstractions (non exposés)&lt;/li&gt;&lt;li style=&quot;text-align: left;&quot;&gt;Le &lt;b&gt;Configurator&lt;/b&gt; qui crée les concrets et les renvoie sous des types abstraits&amp;nbsp;&lt;/li&gt;&lt;/ul&gt;&lt;span style=&quot;&quot;&gt;&lt;div style=&quot;text-align: left;&quot;&gt;&lt;br&gt;&lt;/div&gt;&lt;/span&gt;" style="text;html=1;align=center;verticalAlign=middle;resizable=0;points=[];autosize=1;strokeColor=none;fillColor=none;" parent="1" vertex="1">
          <mxGeometry y="17.5" width="480" height="90" as="geometry" />
        </mxCell>
        <mxCell id="xhKw9gcedyeIrSXuS4pG-4" style="edgeStyle=orthogonalEdgeStyle;rounded=0;orthogonalLoop=1;jettySize=auto;html=1;exitX=0;exitY=0.25;exitDx=0;exitDy=0;entryX=0.75;entryY=0;entryDx=0;entryDy=0;" edge="1" parent="1" source="xhKw9gcedyeIrSXuS4pG-2" target="VVqKtF_Fqne7itBjFoDa-2">
          <mxGeometry relative="1" as="geometry">
            <Array as="points">
              <mxPoint x="670" y="190" />
              <mxPoint x="670" y="150" />
              <mxPoint x="580" y="150" />
            </Array>
          </mxGeometry>
        </mxCell>
        <mxCell id="xhKw9gcedyeIrSXuS4pG-2" value="RiskJaugeView" style="rounded=1;whiteSpace=wrap;html=1;" vertex="1" parent="1">
          <mxGeometry x="990" y="175" width="120" height="60" as="geometry" />
        </mxCell>
        <mxCell id="xhKw9gcedyeIrSXuS4pG-9" style="edgeStyle=orthogonalEdgeStyle;rounded=0;orthogonalLoop=1;jettySize=auto;html=1;exitX=0.5;exitY=0;exitDx=0;exitDy=0;entryX=0.5;entryY=1;entryDx=0;entryDy=0;" edge="1" parent="1" source="xhKw9gcedyeIrSXuS4pG-6" target="VVqKtF_Fqne7itBjFoDa-4">
          <mxGeometry relative="1" as="geometry">
            <Array as="points">
              <mxPoint x="640" y="570" />
              <mxPoint x="640" y="500" />
              <mxPoint x="875" y="500" />
            </Array>
          </mxGeometry>
        </mxCell>
        <mxCell id="xhKw9gcedyeIrSXuS4pG-6" value="import UIKit&lt;br&gt;&lt;br&gt;import&amp;nbsp;MCClientProfileView&lt;br&gt;import FeatureBoundaries" style="whiteSpace=wrap;html=1;aspect=fixed;align=left;verticalAlign=top;" vertex="1" parent="1">
          <mxGeometry x="520" y="570" width="190" height="190" as="geometry" />
        </mxCell>
        <mxCell id="xhKw9gcedyeIrSXuS4pG-8" style="edgeStyle=orthogonalEdgeStyle;rounded=0;orthogonalLoop=1;jettySize=auto;html=1;exitX=0.75;exitY=0;exitDx=0;exitDy=0;entryX=0.5;entryY=1;entryDx=0;entryDy=0;" edge="1" parent="1" source="xhKw9gcedyeIrSXuS4pG-7" target="VVqKtF_Fqne7itBjFoDa-3">
          <mxGeometry relative="1" as="geometry">
            <Array as="points">
              <mxPoint x="943" y="500" />
              <mxPoint x="1050" y="500" />
            </Array>
          </mxGeometry>
        </mxCell>
        <mxCell id="xhKw9gcedyeIrSXuS4pG-7" value="import UIKit&lt;br&gt;&lt;br&gt;import&amp;nbsp;MCRiskViewProfile&lt;br&gt;import FeatureBoundaries" style="whiteSpace=wrap;html=1;aspect=fixed;align=left;verticalAlign=top;" vertex="1" parent="1">
          <mxGeometry x="770" y="570" width="190" height="190" as="geometry" />
        </mxCell>
        <mxCell id="xhKw9gcedyeIrSXuS4pG-14" value="Routing" style="rounded=0;whiteSpace=wrap;html=1;" vertex="1" parent="1">
          <mxGeometry x="510" y="289" width="80" height="23" as="geometry" />
        </mxCell>
        <mxCell id="xhKw9gcedyeIrSXuS4pG-22" value="" style="group" vertex="1" connectable="0" parent="1">
          <mxGeometry x="30" y="70" width="230" height="125" as="geometry" />
        </mxCell>
        <mxCell id="VVqKtF_Fqne7itBjFoDa-36" value="&lt;b&gt;&lt;i&gt;Légende&lt;/i&gt;&lt;/b&gt;" style="text;html=1;align=center;verticalAlign=middle;resizable=0;points=[];autosize=1;strokeColor=none;fillColor=none;" parent="xhKw9gcedyeIrSXuS4pG-22" vertex="1">
          <mxGeometry x="65" width="70" height="30" as="geometry" />
        </mxCell>
        <mxCell id="VVqKtF_Fqne7itBjFoDa-31" value="SPM Package (or App)" style="shape=cube;whiteSpace=wrap;html=1;boundedLbl=1;backgroundOutline=1;darkOpacity=0.05;darkOpacity2=0.1;verticalAlign=top;" parent="xhKw9gcedyeIrSXuS4pG-22" vertex="1">
          <mxGeometry x="10" y="25" width="220" height="100" as="geometry" />
        </mxCell>
        <mxCell id="VVqKtF_Fqne7itBjFoDa-32" value="Internal Target" style="rounded=1;whiteSpace=wrap;html=1;verticalAlign=top;" parent="xhKw9gcedyeIrSXuS4pG-22" vertex="1">
          <mxGeometry x="90" y="65.63" width="123.53" height="49.38" as="geometry" />
        </mxCell>
        <mxCell id="VVqKtF_Fqne7itBjFoDa-37" value="Exposed &lt;br&gt;Target" style="rounded=1;whiteSpace=wrap;html=1;verticalAlign=top;" parent="xhKw9gcedyeIrSXuS4pG-22" vertex="1">
          <mxGeometry y="65.625" width="71.77" height="42.94642857142857" as="geometry" />
        </mxCell>
        <mxCell id="xhKw9gcedyeIrSXuS4pG-17" value="File.swift" style="rounded=0;whiteSpace=wrap;html=1;" vertex="1" parent="xhKw9gcedyeIrSXuS4pG-22">
          <mxGeometry x="116.76999999999998" y="90" width="70" height="20.01" as="geometry" />
        </mxCell>
        <mxCell id="xhKw9gcedyeIrSXuS4pG-24" value="Les écrans &#39;legacy&#39; qui utilisent les vue migrées dans le SPM doivent importer les target correspondantes" style="text;html=1;align=center;verticalAlign=middle;resizable=0;points=[];autosize=1;strokeColor=none;fillColor=none;" vertex="1" parent="1">
          <mxGeometry x="500" y="760" width="580" height="30" as="geometry" />
        </mxCell>
        <mxCell id="xhKw9gcedyeIrSXuS4pG-25" value="&lt;div style=&quot;text-align: center;&quot;&gt;ViewControllerProvider+SavingsHub&lt;/div&gt;import UIKit&lt;br style=&quot;border-color: var(--border-color);&quot;&gt;&lt;br style=&quot;border-color: var(--border-color);&quot;&gt;&lt;span style=&quot;&quot;&gt;import&amp;nbsp;RiskProfileBoundaries&lt;/span&gt;&lt;br style=&quot;border-color: var(--border-color);&quot;&gt;&lt;span style=&quot;&quot;&gt;import&amp;nbsp;RiskProfileConfigurator&lt;/span&gt;&lt;br style=&quot;border-color: var(--border-color);&quot;&gt;&lt;br&gt;...&lt;br&gt;&lt;br style=&quot;border-color: var(--border-color);&quot;&gt;&lt;div style=&quot;&quot;&gt;let featureViewController:UIViewController &amp;nbsp;= RiskProfileConfigurator().configreRiskProfileReminder(...)&lt;/div&gt;" style="rounded=0;whiteSpace=wrap;html=1;align=left;" vertex="1" parent="1">
          <mxGeometry x="50" y="600" width="320" height="150" as="geometry" />
        </mxCell>
      </root>
    </mxGraphModel>
  </diagram>
</mxfile>
